G04*
G04 #@! TF.GenerationSoftware,Altium Limited,Altium Designer,24.5.2 (23)*
G04*
G04 Layer_Physical_Order=3*
G04 Layer_Color=32768*
%FSLAX25Y25*%
%MOIN*%
G70*
G04*
G04 #@! TF.SameCoordinates,F3A3955B-CDAA-4A41-8258-469B26568034*
G04*
G04*
G04 #@! TF.FilePolarity,Negative*
G04*
G01*
G75*
%ADD52C,0.06800*%
%ADD75C,0.00010*%
G04:AMPARAMS|DCode=76|XSize=100mil|YSize=100mil|CornerRadius=0mil|HoleSize=0mil|Usage=FLASHONLY|Rotation=0.000|XOffset=0mil|YOffset=0mil|HoleType=Round|Shape=Relief|Width=20mil|Gap=10mil|Entries=4|*
%AMTHD76*
7,0,0,0.10000,0.08000,0.02000,45*
%
%ADD76THD76*%
%ADD77C,0.08000*%
%AMTHOVALD78*
21,1,0.04724,0.08362,0,0,360.0*
1,1,0.08362,-0.02362,0.00000*
1,1,0.08362,0.02362,0.00000*
21,0,0.04724,0.06362,0,0,360.0*
1,0,0.06362,-0.02362,0.00000*
1,0,0.06362,0.02362,0.00000*
4,0,4,-0.01655,-0.00707,-0.04612,-0.03664,-0.06026,-0.02249,-0.03069,0.00707,-0.01655,-0.00707,0.0*
4,0,4,0.03069,-0.00707,0.06026,0.02249,0.04612,0.03664,0.01655,0.00707,0.03069,-0.00707,0.0*
4,0,4,-0.03069,-0.00707,-0.06026,0.02249,-0.04612,0.03664,-0.01655,0.00707,-0.03069,-0.00707,0.0*
4,0,4,0.01655,-0.00707,0.04612,-0.03664,0.06026,-0.02249,0.03069,0.00707,0.01655,-0.00707,0.0*
%
%ADD78THOVALD78*%

%AMTHOVALD79*
21,1,0.03150,0.08362,0,0,360.0*
1,1,0.08362,-0.01575,0.00000*
1,1,0.08362,0.01575,0.00000*
21,0,0.03150,0.06362,0,0,360.0*
1,0,0.06362,-0.01575,0.00000*
1,0,0.06362,0.01575,0.00000*
4,0,4,-0.00868,-0.00707,-0.03824,-0.03664,-0.05238,-0.02249,-0.02282,0.00707,-0.00868,-0.00707,0.0*
4,0,4,0.02282,-0.00707,0.05238,0.02249,0.03824,0.03664,0.00868,0.00707,0.02282,-0.00707,0.0*
4,0,4,-0.02282,-0.00707,-0.05238,0.02249,-0.03824,0.03664,-0.00868,0.00707,-0.02282,-0.00707,0.0*
4,0,4,0.00868,-0.00707,0.03824,-0.03664,0.05238,-0.02249,0.02282,0.00707,0.00868,-0.00707,0.0*
%
%ADD79THOVALD79*%

%ADD80C,0.05200*%
D52*
X42500Y77500D02*
D03*
Y72500D02*
D03*
X185000Y77500D02*
D03*
X42500Y67500D02*
D03*
X180000Y77500D02*
D03*
D75*
X0Y0D02*
Y150000D01*
X320000D01*
Y0D02*
Y150000D01*
X0Y0D02*
X320000D01*
D76*
X302500Y136500D02*
D03*
X82500D02*
D03*
X297500Y15000D02*
D03*
X77500D02*
D03*
D77*
X292500Y136500D02*
D03*
X282500D02*
D03*
X272500D02*
D03*
X262500D02*
D03*
X252500D02*
D03*
X242500D02*
D03*
X232500D02*
D03*
X222500D02*
D03*
X212500D02*
D03*
X202500D02*
D03*
X192500D02*
D03*
X182500D02*
D03*
X172500D02*
D03*
X162500D02*
D03*
X152500D02*
D03*
X142500D02*
D03*
X132500D02*
D03*
X122500D02*
D03*
X112500D02*
D03*
X102500D02*
D03*
X92500D02*
D03*
X72500D02*
D03*
X307500Y15000D02*
D03*
X287500D02*
D03*
X277500D02*
D03*
X267500D02*
D03*
X257500D02*
D03*
X247500D02*
D03*
X237500D02*
D03*
X227500D02*
D03*
X217500D02*
D03*
X207500D02*
D03*
X197500D02*
D03*
X187500D02*
D03*
X177500D02*
D03*
X167500D02*
D03*
X157500D02*
D03*
X147500D02*
D03*
X137500D02*
D03*
X127500D02*
D03*
X117500D02*
D03*
X107500D02*
D03*
X97500D02*
D03*
X87500D02*
D03*
D78*
X10472Y39508D02*
D03*
Y5492D02*
D03*
Y144508D02*
D03*
Y110492D02*
D03*
D79*
X26221Y39508D02*
D03*
Y5492D02*
D03*
Y144508D02*
D03*
Y110492D02*
D03*
D80*
X258600Y50800D02*
D03*
Y54200D02*
D03*
X258800Y60700D02*
D03*
Y64100D02*
D03*
X255100Y80800D02*
D03*
X246500Y63600D02*
D03*
X246600Y69600D02*
D03*
X225600Y70100D02*
D03*
X227800Y73100D02*
D03*
X266500Y50500D02*
D03*
X269900Y47300D02*
D03*
X276600Y47100D02*
D03*
X283200Y47200D02*
D03*
X290100Y47400D02*
D03*
X59500Y23300D02*
D03*
X59700Y19900D02*
D03*
X116200Y37800D02*
D03*
X112600Y37700D02*
D03*
X293300Y95000D02*
D03*
X286700Y94700D02*
D03*
X279900Y94600D02*
D03*
X273200Y94500D02*
D03*
X266600Y94300D02*
D03*
X255100Y87100D02*
D03*
X231000Y114000D02*
D03*
X198300Y96300D02*
D03*
X165200Y105800D02*
D03*
X101000Y85500D02*
D03*
X132000Y126000D02*
D03*
X302000Y115000D02*
D03*
X124600Y122400D02*
D03*
X117100Y124200D02*
D03*
X191700Y73700D02*
D03*
X154500Y109900D02*
D03*
X226399Y36200D02*
D03*
X96500Y105600D02*
D03*
X36400Y129600D02*
D03*
X42300Y129400D02*
D03*
X79800Y114800D02*
D03*
X79900Y110500D02*
D03*
X245200Y59100D02*
D03*
X245000Y55100D02*
D03*
X81000Y36100D02*
D03*
X85300Y35800D02*
D03*
X89900Y35500D02*
D03*
X127000Y106900D02*
D03*
X253700Y77500D02*
D03*
X206800Y92700D02*
D03*
X115400Y86100D02*
D03*
X135500Y101900D02*
D03*
X202800Y93500D02*
D03*
X252600Y84200D02*
D03*
X254500Y90800D02*
D03*
X255700Y94600D02*
D03*
X211400Y113900D02*
D03*
X307900Y113000D02*
D03*
X273100Y50400D02*
D03*
X296700Y91400D02*
D03*
Y47500D02*
D03*
X300000Y50700D02*
D03*
X293400Y50600D02*
D03*
X286500Y50400D02*
D03*
X279900Y50300D02*
D03*
X269900Y91300D02*
D03*
X276600Y91400D02*
D03*
X283400Y91500D02*
D03*
X290000Y91800D02*
D03*
X300000Y95000D02*
D03*
M02*
