G04*
G04 #@! TF.GenerationSoftware,Altium Limited,Altium Designer,24.5.2 (23)*
G04*
G04 Layer_Color=16711935*
%FSLAX25Y25*%
%MOIN*%
G70*
G04*
G04 #@! TF.SameCoordinates,F3A3955B-CDAA-4A41-8258-469B26568034*
G04*
G04*
G04 #@! TF.FilePolarity,Negative*
G04*
G01*
G75*
%ADD52C,0.06800*%
%ADD53R,0.06800X0.06800*%
%ADD54R,0.04400X0.04400*%
G04:AMPARAMS|DCode=55|XSize=39.37mil|YSize=86.61mil|CornerRadius=19.68mil|HoleSize=0mil|Usage=FLASHONLY|Rotation=270.000|XOffset=0mil|YOffset=0mil|HoleType=Round|Shape=RoundedRectangle|*
%AMROUNDEDRECTD55*
21,1,0.03937,0.04724,0,0,270.0*
21,1,0.00000,0.08661,0,0,270.0*
1,1,0.03937,-0.02362,0.00000*
1,1,0.03937,-0.02362,0.00000*
1,1,0.03937,0.02362,0.00000*
1,1,0.03937,0.02362,0.00000*
%
%ADD55ROUNDEDRECTD55*%
G04:AMPARAMS|DCode=56|XSize=39.37mil|YSize=70.87mil|CornerRadius=19.68mil|HoleSize=0mil|Usage=FLASHONLY|Rotation=270.000|XOffset=0mil|YOffset=0mil|HoleType=Round|Shape=RoundedRectangle|*
%AMROUNDEDRECTD56*
21,1,0.03937,0.03150,0,0,270.0*
21,1,0.00000,0.07087,0,0,270.0*
1,1,0.03937,-0.01575,0.00000*
1,1,0.03937,-0.01575,0.00000*
1,1,0.03937,0.01575,0.00000*
1,1,0.03937,0.01575,0.00000*
%
%ADD56ROUNDEDRECTD56*%
%ADD57C,0.04400*%
%ADD58R,0.04400X0.04400*%
D52*
X302500Y136500D02*
D03*
X292500D02*
D03*
X282500D02*
D03*
X272500D02*
D03*
X262500D02*
D03*
X252500D02*
D03*
X242500D02*
D03*
X232500D02*
D03*
X222500D02*
D03*
X212500D02*
D03*
X202500D02*
D03*
X192500D02*
D03*
X182500D02*
D03*
X172500D02*
D03*
X162500D02*
D03*
X152500D02*
D03*
X142500D02*
D03*
X132500D02*
D03*
X122500D02*
D03*
X112500D02*
D03*
X102500D02*
D03*
X92500D02*
D03*
X82500D02*
D03*
X297500Y15000D02*
D03*
X287500D02*
D03*
X277500D02*
D03*
X267500D02*
D03*
X257500D02*
D03*
X247500D02*
D03*
X237500D02*
D03*
X227500D02*
D03*
X217500D02*
D03*
X207500D02*
D03*
X197500D02*
D03*
X187500D02*
D03*
X177500D02*
D03*
X167500D02*
D03*
X157500D02*
D03*
X147500D02*
D03*
X137500D02*
D03*
X127500D02*
D03*
X117500D02*
D03*
X107500D02*
D03*
X97500D02*
D03*
X87500D02*
D03*
X77500D02*
D03*
D53*
X72500Y136500D02*
D03*
X307500Y15000D02*
D03*
D54*
X42500Y77500D02*
D03*
D55*
X10472Y39508D02*
D03*
Y5492D02*
D03*
Y144508D02*
D03*
Y110492D02*
D03*
D56*
X26221Y39508D02*
D03*
Y5492D02*
D03*
Y144508D02*
D03*
Y110492D02*
D03*
D57*
X42500Y72500D02*
D03*
X185000Y77500D02*
D03*
X42500Y67500D02*
D03*
D58*
X180000Y77500D02*
D03*
M02*
