M48
;Layer_Color=9474304
;FILE_FORMAT=2:5
INCH,LZ
;TYPE=PLATED
T01F00S00C0.01200
T03F00S00C0.02800
T04F00S00C0.04000
%
T01
X00335Y001
X00436Y00173
X00433Y00255
X005315Y002685
X00533Y0032887
X00595Y00233
X00597Y00199
X00528Y0016
X00364Y00407
X00324Y00409
X0081Y00361
X00853Y00358
X00899Y00355
X00893Y00495
X00846Y00498
X00941Y00495
X01126Y00377
X01162Y00378
X01178Y00348
X0111Y00344
X01337Y0049
Y00554
X01338Y00627
X01405Y00626
X01469Y00624
X0153
X01588
Y00548
X01534Y00547
X01475
X0147Y00488
X0153Y00485
X0159Y0049
X016685Y005615
X01408Y00549
X01406Y00486
X0136Y0088828
X01154Y00861
X01155Y0093
X01005Y00897
X0101Y00855
X01917Y00737
X01982Y00566
X02053Y00294
X02137Y00338
X0226399Y00362
X02256Y00701
X02294Y00699
X02278Y00731
X02305Y00756
X02466Y00696
X02465Y00636
X02499Y00635
X02452Y00591
X0245Y00551
X02068Y00927
X02028Y00935
X02545Y00908
X02551Y00871
X02526Y00842
X02551Y00808
X02537Y00775
X025Y00689
X02588Y00641
Y00607
X02586Y00542
Y00508
X02665Y00505
X02699Y00473
X02731Y00504
X02766Y00471
X02799Y00503
X02832Y00472
X02865Y00504
X02901Y00474
X02934Y00506
X02967Y00475
X03Y00507
X03033Y00471
X03068Y0047
X03138Y00474
X03139Y00508
X0314Y00541
X03139Y00574
X0314Y00608
X03141Y00642
X03143Y00676
X03144Y00709
X0314Y00743
X03143Y00775
X0314Y00809
X03139Y00843
X0314Y00875
X03138Y00908
X02967Y00914
X029Y00918
X02834Y00915
X02766Y00914
X02699Y00913
X02781Y00773
X02782Y00709
X02785Y00647
X02867Y00676
Y00741
X02932
Y00676
X02901Y006
X03016Y00642
X03012Y00709
X03005Y00774
X029Y00819
X03174Y00369
X0258Y00405
X02557Y00946
X02563Y00985
X02666Y00943
X02732Y00945
X02799Y00946
X02867Y00947
X02933Y0095
X03
X03101
X03139Y00943
X03103Y01031
X03079Y0113
X0302Y0115
X02988Y01136
X0231Y0114
X02114Y01139
X01933Y01146
X01983Y00963
X02053Y00967
X01652Y01058
X01678Y01122
X01545Y01099
X01365Y01188
X0132Y0126
X01246Y01224
X01171Y01242
X01085Y01235
X01087Y01147
X01125Y01146
Y01103
X0109Y01106
X01125Y0101
X01154Y00965
X0127Y01069
X01355Y01019
X01364Y00948
X00965Y01056
X00824Y01042
X00799Y01105
X00798Y01148
X00835Y01213
X00552Y01249
X00547Y0115
X00567Y01342
X00423Y01294
X00429Y01249
X00364Y01296
X00392Y01377
X0034Y01404
X00331Y0111
X00365Y01105
T03
X00425Y00675
Y00725
Y00775
X018
X0185
T04
X00775Y0015
X00875
X00975
X01075
X01175
X01275
X01375
X01475
X01575
X01675
X01775
X01875
X01975
X02075
X02175
X02275
X02375
X02475
X02575
X02675
X02775
X02875
X02975
X03075
X03025Y01365
X02925
X02825
X02725
X02625
X02525
X02425
X02325
X02225
X02125
X02025
X01925
X01825
X01725
X01625
X01525
X01425
X01325
X01225
X01125
X01025
X00925
X00825
X00725
M30
